<?xml version="1.0" encoding="utf-8"?>
<!-- Generator: Adobe Illustrator 16.0.0, SVG Export Plug-In . SVG Version: 6.00 Build 0)  -->
<!DOCTYPE svg PUBLIC "-//W3C//DTD SVG 1.1//EN" "http://www.w3.org/Graphics/SVG/1.1/DTD/svg11.dtd">
<svg version="1.1" id="Capa_1" xmlns="http://www.w3.org/2000/svg" xmlns:xlink="http://www.w3.org/1999/xlink" x="0px" y="0px"
	 width="512px" height="512px" viewBox="0 0 512 512" enable-background="new 0 0 512 512" xml:space="preserve">
<g>
	<g>
		<path fill="#772E25" d="M468.633,113.561l-7.66,2.428l-40.792,3.634l-11.522,18.4l-8.36-2.657l-32.465-29.27l-4.71-15.222
			l-6.307-16.232L336.412,56.34l-24.072-4.71l-0.554,11.017l23.583,23.012l11.538,13.592l-12.974,6.78l-10.561-3.113l-15.824-6.601
			l0.537-12.761l-20.762-8.54l-6.895,30.003l-20.926,4.743l2.07,16.737l27.266,5.248l4.709-26.744l22.508,3.325l10.463,6.128h16.785
			l11.49,23.012l30.46,30.9l-2.233,12.011l-24.56-3.129l-42.438,21.431l-30.558,36.653l-3.977,16.232h-10.968l-20.438-9.42
			l-19.85,9.42l4.938,20.943l8.638-9.958l15.189-0.473l-1.06,18.808l12.582,3.683l12.564,14.114l20.52-5.77l23.436,3.699
			l27.217,7.317l13.592,1.597l23.045,26.158l44.475,26.157l-28.765,54.955l-30.362,14.113l-11.521,31.405l-43.938,29.335
			l-4.677,16.917c112.321-27.054,195.878-127.951,195.878-248.585C511.951,203.294,495.979,154.255,468.633,113.561z"/>
		<path fill="#772E25" d="M285.449,389.785l-18.645-34.566l17.113-35.659l-17.113-5.117l-19.214-19.296l-42.569-9.551l-14.13-29.563
			v17.552h-6.226l-36.686-49.74v-40.858l-26.891-43.726l-42.699,7.611H49.625l-14.472-9.485l18.465-14.635l-18.416,4.253
			C13.005,164.914,0.065,208.9,0.065,256.016C0.065,397.364,114.652,512,256.016,512c10.886,0,21.562-0.962,32.123-2.232
			l-2.673-31.015c0,0,11.751-46.057,11.751-47.621C297.199,429.552,285.449,389.785,285.449,389.785z"/>
		<path fill="#772E25" d="M95.177,82.546l45.47-6.339l20.958-11.49l23.582,6.796l37.68-2.086l12.908-20.291l18.824,3.097
			l45.714-4.286l12.598-13.886l17.765-11.864l25.131,3.781l9.159-1.385C331.865,9.013,295.032,0,256,0
			C176.55,0,105.51,36.213,58.605,93.075h0.13L95.177,82.546z M266.821,25.457l26.142-14.391l16.786,9.697l-24.3,18.498
			l-23.207,2.33l-10.447-6.779L266.821,25.457z M189.393,27.559l11.539,4.808l15.107-4.808l8.23,14.26l-34.876,9.159l-16.77-9.811
			C172.606,41.167,189.018,30.606,189.393,27.559z"/>
	</g>
</g>
</svg>
